<?xml version="1.0" encoding="iso-8859-1"?>
<!-- Generator: Adobe Illustrator 19.0.0, SVG Export Plug-In . SVG Version: 6.00 Build 0)  -->
<svg xmlns="http://www.w3.org/2000/svg" xmlns:xlink="http://www.w3.org/1999/xlink" version="1.1" id="Layer_1" x="0px" y="0px" viewBox="0 0 511.991 511.991" style="enable-background:new 0 0 511.991 511.991;" xml:space="preserve" width="50" height="50">
<g id="alarm">
	<g id="fill_11_">
		<path style="fill:#EAEAEA;" d="M449.075,490.486L449.075,490.486c10.781-10.781,10.781-28.423,0-39.204l-57.14-57.14    c-10.781-10.781-28.423-10.781-39.204,0l0,0c-10.781,10.781-10.781,28.423,0,39.204l57.14,57.14    C420.652,501.267,438.294,501.267,449.075,490.486z"/>
		<path style="fill:#EAEAEA;" d="M62.919,490.486L62.919,490.486c-10.781-10.781-10.781-28.423,0-39.204l57.14-57.14    c10.781-10.781,28.423-10.781,39.204,0l0,0c10.781,10.781,10.781,28.423,0,39.204l-57.14,57.14    C91.341,501.267,73.7,501.267,62.919,490.486z"/>
		<path style="fill:#D8D7DA;" d="M107.418,485.191l51.845-51.845c10.781-10.781,10.781-28.423,0-39.204v0    c-10.781-10.781-28.423-10.781-39.204,0l-50.253,50.253C78.26,457.883,90.309,472.291,107.418,485.191z"/>
		<path style="fill:#D8D7DA;" d="M404.576,485.191l-51.845-51.845c-10.781-10.781-10.781-28.423,0-39.204v0    c10.781-10.781,28.423-10.781,39.204,0l50.253,50.253C433.734,457.883,421.685,472.291,404.576,485.191z"/>
		<path style="fill:#EAEAEA;" d="M432.705,99.96L432.705,99.96c8.017,8.017,21.135,8.017,29.151,0l36.333-36.333    c8.017-8.017,8.017-21.135,0-29.152l0,0c-8.017-8.017-21.135-8.017-29.151,0l-36.333,36.333    C424.688,78.825,424.688,91.943,432.705,99.96z"/>
		<path style="fill:#F46262;" d="M476.199,60.813c37.801,37.801,33.099,81.52,12.82,117.167    c-11.231,19.743-38.296,23.198-54.357,7.137l-82.768-82.768c-16.061-16.061-12.606-43.126,7.137-54.357    C394.679,27.714,438.398,23.011,476.199,60.813z"/>
		<path style="fill:#D65B5B;" d="M434.663,185.121c15.396,15.396,40.894,12.848,52.873-4.779    c-30.212-67.542-71.873-85.066-86.633-104.962c-11.219-15.122-8.487-30.46-3.401-41.581c-13.387,2.247-26.392,7.326-38.47,14.196    c-19.743,11.231-23.198,38.296-7.137,54.357L434.663,185.121z"/>
		<path style="fill:#EAEAEA;" d="M79.289,99.96L79.289,99.96c-8.017,8.017-21.135,8.017-29.151,0L13.804,63.627    c-8.017-8.017-8.017-21.135,0-29.152l0,0c8.017-8.017,21.135-8.017,29.151,0l36.333,36.333    C87.305,78.825,87.305,91.943,79.289,99.96z"/>
		<path style="fill:#F46262;" d="M35.794,60.813c-37.801,37.801-33.099,81.52-12.82,117.167    c11.231,19.743,38.296,23.198,54.357,7.137l82.768-82.768c16.061-16.061,12.606-43.126-7.137-54.357    C117.315,27.714,73.596,23.011,35.794,60.813z"/>
		<path style="fill:#D65B5B;" d="M77.329,185.117l82.768-82.768c16.061-16.061,12.606-43.126-7.137-54.357    c-0.812-0.462-1.629-0.912-2.449-1.358C93.178,80.043,70.061,141.91,46.545,130.41c-17.928-8.767-22.625-33.151-22.831-55.388    C-0.611,109.26,5.191,146.723,22.972,177.98C34.203,197.723,61.268,201.178,77.329,185.117z"/>
		<rect x="236.3" y="21.904" style="fill:#D8D7DA;" width="39.393" height="80.903"/>
		<circle style="fill:#FF737D;" cx="255.997" cy="286.974" r="211.598"/>
		<circle style="fill:#D7F3FF;" cx="255.997" cy="286.974" r="152.51"/>
		<path style="fill:#92D8FF;" d="M158.638,286.974c0-74.813,53.87-137.038,124.934-150.017c-8.944-1.634-18.159-2.493-27.575-2.493    c-84.229,0-152.51,68.281-152.51,152.51s68.281,152.509,152.51,152.509c9.416,0,18.631-0.859,27.575-2.493    C212.508,424.012,158.638,361.787,158.638,286.974z"/>
		<path style="fill:#EAEAEA;" d="M292.052,51.611h-72.11c-10.503,0-19.096-8.593-19.096-19.096l0,0    c0-10.503,8.593-19.096,19.096-19.096h72.11c10.503,0,19.096,8.593,19.096,19.096l0,0    C311.148,43.018,302.554,51.611,292.052,51.611z"/>
		<path style="fill:#E8C73D;" d="M236.901,284.334v-72.11c0-10.503,8.593-19.096,19.096-19.096l0,0    c10.503,0,19.096,8.593,19.096,19.096v72.11c0,10.503-8.593,19.096-19.096,19.096l0,0    C245.494,303.43,236.901,294.837,236.901,284.334z"/>
		<path style="fill:#E8C73D;" d="M300.149,373.481l-46.455-55.152c-6.766-8.033-5.73-20.141,2.303-26.907v0    c8.033-6.766,20.141-5.73,26.907,2.303l46.455,55.152c6.766,8.033,5.73,20.141-2.303,26.907l0,0    C319.023,382.551,306.915,381.514,300.149,373.481z"/>
		<circle style="fill:#F2DA77;" cx="255.997" cy="286.974" r="38.695"/>
	</g>
	<g id="stroke_11_">
		<path d="M255.997,126.965c-88.23,0-160.01,71.78-160.01,160.009s71.78,160.01,160.01,160.01c23.562,0,46.26-5.005,67.461-14.876    c3.755-1.749,5.382-6.21,3.634-9.965c-1.749-3.755-6.209-5.381-9.965-3.634c-19.204,8.941-39.772,13.475-61.13,13.475    c-79.959,0-145.01-65.051-145.01-145.01s65.051-145.009,145.01-145.009s145.01,65.051,145.01,145.009    c0,46.4-22.479,90.358-60.132,117.588c-3.356,2.427-4.109,7.116-1.683,10.472c2.427,3.354,7.114,4.11,10.473,1.682    c41.541-30.041,66.342-78.543,66.342-129.742C416.007,198.745,344.226,126.965,255.997,126.965z"/>
		<path d="M511.88,119.826c-0.803-15.915-5.689-30.888-14.533-44.75l6.146-6.146c5.294-5.293,8.21-12.354,8.21-19.879    s-2.916-14.586-8.21-19.879c-5.294-5.294-12.354-8.209-19.879-8.209s-14.586,2.916-19.879,8.209l-7.254,7.253    c-12.312-6.796-25.447-10.595-39.296-11.294c-19.92-1.003-41.304,4.647-61.862,16.341c-9.882,5.622-16.89,14.78-19.733,25.788    c-1.275,4.938-1.621,10.043-1.092,15.041c-16.601-6.36-34.006-10.68-51.906-12.832V59.111h9.459    c14.665,0,26.596-11.931,26.596-26.596c0-14.665-11.931-26.596-26.596-26.596h-72.109c-14.665,0-26.596,11.931-26.596,26.596    c0,14.665,11.931,26.596,26.596,26.596h8.858v10.427c-17.69,2.176-34.89,6.476-51.305,12.765    c0.529-4.998,0.183-10.103-1.092-15.041c-2.842-11.008-9.85-20.167-19.732-25.788c-11.942-6.793-24.083-11.553-36.087-14.147    c-4.047-0.872-8.04,1.699-8.915,5.747c-0.875,4.049,1.698,8.04,5.747,8.915c10.512,2.271,21.224,6.484,31.838,12.523    c6.323,3.597,10.807,9.457,12.625,16.5c1.645,6.37,0.913,13.155-1.976,18.955c-21.524,10.521-41.392,24.644-58.831,42.083    c-16.239,16.239-29.601,34.585-39.86,54.412c-12.08,3.94-25.36-1.011-31.719-12.189c-10.28-18.071-15.259-36.636-14.398-53.69    c1.004-19.891,9.752-38.215,26.003-54.466c14.663-14.663,31.056-23.24,48.724-25.493c4.109-0.524,7.015-4.28,6.491-8.389    c-0.523-4.108-4.275-7.013-8.389-6.491c-11.33,1.445-22.156,5.036-32.406,10.689l-7.259-7.259    c-5.293-5.294-12.353-8.209-19.879-8.209s-14.585,2.916-19.879,8.209c-5.294,5.293-8.21,12.354-8.21,19.879    s2.916,14.585,8.21,19.879l6.146,6.146c-8.843,13.862-13.729,28.835-14.532,44.75c-1.005,19.912,4.646,41.304,16.341,61.862    c7.648,13.443,18.156,25.54,37.135,21.107c-10.948,26.324-16.691,54.809-16.691,84.178c0,58.523,22.79,113.543,64.172,154.926    c6.577,6.578,13.502,12.681,20.728,18.302l-24.981,24.981c-3.798,3.798-19.253,10.592-28.597,0    c-9.344-10.592-3.798-24.799,0-28.597l6.887-6.887c2.929-2.929,2.929-7.678,0-10.606c-2.929-2.929-7.678-2.929-10.606,0    l-6.887,6.887c-6.631,6.63-10.283,15.475-10.283,24.905c0,9.43,3.652,18.274,10.283,24.905    c6.63,6.631,15.475,10.283,24.905,10.283c9.43,0,18.274-3.652,24.905-10.283l26.68-26.68    c35.763,24.042,77.833,36.963,121.891,36.963s86.128-12.921,121.891-36.963l26.68,26.68c6.63,6.631,15.475,10.283,24.905,10.283    c9.43,0,18.275-3.652,24.905-10.283c6.631-6.631,10.283-15.475,10.283-24.905c0-9.43-3.652-18.274-10.283-24.905l-25.004-25.004    c29.648-38.199,45.72-84.863,45.72-134.001c0-29.377-5.746-57.87-16.7-84.199c0.252,0.005,22.402,5.331,37.145-21.086    C507.065,161.034,512.885,139.738,511.88,119.826z M19.107,58.324c-2.461-2.461-7.014-11.281,0-18.545    c7.014-7.264,16.084-2.461,18.545,0l5.041,5.041c-4.182,3.189-12.552,10.041-19.021,18.069L19.107,58.324z M474.342,39.779    c2.461-2.461,11.697-7.48,18.545,0c6.848,7.48,2.461,16.084,0,18.545l-4.565,4.565c-7.235-8.703-14.844-14.879-19.022-18.068    L474.342,39.779z M208.346,32.515c0-6.394,5.202-11.596,11.596-11.596h72.109c6.394,0,11.596,5.202,11.596,11.596    c0,6.394-5.202,11.596-11.596,11.596h-72.109C213.548,44.111,208.346,38.909,208.346,32.515z M243.8,59.111h23.793v9.072    c-3.848-0.199-7.725-1.224-23.793,0.037V59.111z M443.772,456.586c3.798,3.798,10.031,17.507,0,28.597    c-10.031,11.09-24.799,3.798-28.597,0l-24.981-24.981c14.242-10.003,26.7-24.469,29.54-27.655L443.772,456.586z M255.997,491.072    c-112.54,0-204.098-91.558-204.098-204.098S143.457,82.876,255.997,82.876s204.098,91.558,204.098,204.098    S368.537,491.072,255.997,491.072z M482.501,174.271c-6.338,11.14-19.648,16.113-31.721,12.185    c-10.259-19.825-23.62-38.17-39.858-54.408c-17.439-17.439-37.307-31.561-58.831-42.083c-2.889-5.8-3.621-12.585-1.976-18.955    c1.818-7.043,6.302-12.903,12.625-16.5c18.071-10.28,36.631-15.257,53.689-14.398c19.891,1.004,38.215,9.752,54.466,26.003    c16.25,16.25,24.999,34.576,26.003,54.466C497.759,137.635,492.781,156.201,482.501,174.271z"/>
		<path d="M335.095,344.045l-35.423-42.055c1.625-4.712,2.519-9.76,2.519-15.017c0-15.575-7.755-29.363-19.599-37.735v-37.014    c0-14.665-11.931-26.596-26.596-26.596c-14.665,0-26.596,11.931-26.596,26.596v37.014c-11.844,8.372-19.599,22.161-19.599,37.735    c0,25.472,20.723,46.195,46.195,46.195c0.128,0,0.254-0.009,0.383-0.01l38.033,45.154c14.548,17.472,32.496,7.402,37.475,3.208    C343.104,372.073,344.543,355.262,335.095,344.045z M244.401,212.225c0-6.394,5.202-11.596,11.596-11.596    c6.394,0,11.596,5.202,11.596,11.596v30.03c-3.707-0.962-7.592-1.475-11.596-1.475c-4.003,0-7.889,0.513-11.596,1.475V212.225z     M224.802,286.974c0-17.201,13.994-31.194,31.195-31.194c17.201,0,31.195,13.994,31.195,31.194    c0,17.201-13.994,31.195-31.195,31.195C238.796,318.169,224.802,304.175,224.802,286.974z M322.224,370.048    c-4.891,4.119-12.22,3.491-16.339-1.398l-32.693-38.814c7.35-2.96,13.77-7.75,18.688-13.813l31.743,37.685    C327.742,358.599,327.115,365.929,322.224,370.048z"/>
	</g>
</g>















</svg>
